PathFileType	4	(X/Y/Z)	./resultDataOpenSim/trcMotMarkerGrf/sub10/qtm-14-06.trc
DataRate	CameraRate	NumFrames	NumMarkers	Units	OrigDataRate	OrigDataStartFrame	OrigNumFrames
250.000000	250.000000	4	24	m	250.000000	1	488
Frame#	Time	L.Toe.Tip			R.Toe.Tip			L.Ankle.Lat			R.Ankle.Lat			L.Ankle.Med			R.Ankle.Med			L.Heel			R.Heel			L.Knee.Lat			R.Knee.Lat			L.Knee.Med			R.Knee.Med			L.Thigh.Upper			R.Thigh.Upper			L.ASIS			R.ASIS			V.Sacral			L.Acromium			R.Acromium			C7			L.Elbow			R.Elbow			L.Wrist.Lat			R.Wrist.Lat
		X1	Y1	Z1	X2	Y2	Z2	X3	Y3	Z3	X4	Y4	Z4	X5	Y5	Z5	X6	Y6	Z6	X7	Y7	Z7	X8	Y8	Z8	X9	Y9	Z9	X10	Y10	Z10	X11	Y11	Z11	X12	Y12	Z12	X13	Y13	Z13	X14	Y14	Z14	X15	Y15	Z15	X16	Y16	Z16	X17	Y17	Z17	X18	Y18	Z18	X19	Y19	Z19	X20	Y20	Z20	X21	Y21	Z21	X22	Y22	Z22	X23	Y23	Z23	X24	Y24	Z24

1	0	-1.4374823	0.038206246	-0.10531166	-0.74606373	0.12579398	-0.0016134744	-1.5644884	0.084139542	-0.1486059	-0.87773713	0.078631138	0.03372419	-1.5478626	0.11220831	-0.068277157	-0.87304874	0.11724697	-0.046654079	-1.6384714	0.07464044	-0.11948993	-0.90964408	0.035751365	-0.019385066	-1.403265	0.436465	-0.20095945	-1.0277876	0.4476333	0.062267772	-1.4008489	0.41867646	-0.078813203	-1.0386619	0.45339972	-0.062085173	-1.2750459	0.80955421	-0.27566253	-1.1969584	0.82794314	0.10581547	-1.1932934	0.91023944	-0.22196646	-1.1422947	0.92575401	0.016150728	-1.3604369	0.93177382	-0.055559262	-1.1901976	1.3830599	-0.24298079	-1.2294899	1.3829131	0.075575439	-1.2926206	1.4169883	-0.098255107	-1.212616	1.0334399	-0.30351726	-1.3875148	1.0728123	0.12241776	-0.98820612	0.92899329	-0.26951423	-1.3086408	0.85357978	0.19710788
2	0.004	-1.438468	0.037828553	-0.104254	-0.73944313	0.12482478	-0.0023332534	-1.5635938	0.08559275	-0.14896756	-0.87106362	0.077842023	0.033179492	-1.5466705	0.11352001	-0.068572709	-0.86635079	0.11654326	-0.047211059	-1.6377406	0.077005895	-0.11989092	-0.90359425	0.035292648	-0.020076396	-1.3982253	0.43613876	-0.20114411	-1.0221153	0.448144	0.06401051	-1.3953404	0.41803471	-0.078965435	-1.0320026	0.45327343	-0.062383346	-1.2700653	0.80932998	-0.27553421	-1.1888844	0.82719576	0.10589162	-1.187655	0.90965333	-0.22239451	-1.1353012	0.92475126	0.015626554	-1.3521082	0.93134513	-0.051535329	-1.1842972	1.3821348	-0.24253168	-1.223429	1.3820628	0.075954187	-1.2870369	1.4161711	-0.097903387	-1.2061019	1.0325963	-0.30268792	-1.3823166	1.0724085	0.1224449	-0.98085146	0.92954206	-0.26793358	-1.304397	0.85287588	0.19781202
3	0.008	-1.4393785	0.037275533	-0.10296946	-0.7331658	0.12362578	-0.0030547642	-1.5625662	0.087038782	-0.14928614	-0.86473999	0.076956432	0.032604837	-1.5454221	0.11488019	-0.068927579	-0.85992424	0.11569758	-0.047785032	-1.6365912	0.0792028	-0.11948485	-0.89785286	0.034676707	-0.020647366	-1.3930234	0.43581353	-0.20139288	-1.0161468	0.44859047	0.065363246	-1.3898677	0.41736975	-0.079101624	-1.0251909	0.45318064	-0.062746336	-1.2650154	0.80911725	-0.2754236	-1.1807367	0.82653101	0.1059648	-1.181921	0.90908799	-0.22280031	-1.1282396	0.92379891	0.015082837	-1.3443329	0.93080867	-0.048343712	-1.1783429	1.3812832	-0.24206211	-1.2174159	1.3812808	0.076391446	-1.2814217	1.4153931	-0.097489728	-1.1996065	1.0318152	-0.30180914	-1.3769514	1.0719713	0.12245898	-0.97360014	0.93007656	-0.26639651	-1.3003175	0.85216668	0.19843482
4	0.012	-1.4399298	0.036645542	-0.10171108	-0.72743531	0.12206456	-0.0037610456	-1.5612708	0.088425562	-0.149419	-0.85897958	0.075910108	0.032017569	-1.5441282	0.11630808	-0.069355064	-0.85396511	0.1146255	-0.048367382	-1.6347866	0.081149981	-0.11782376	-0.89256066	0.033807748	-0.020964842	-1.3876039	0.43548368	-0.20172314	-1.0092941	0.44880164	0.065658012	-1.3843953	0.41670392	-0.079221471	-1.0181749	0.45313494	-0.063198105	-1.2598742	0.80894853	-0.27532772	-1.1724859	0.82600136	0.1060226	-1.1760595	0.90854623	-0.22318237	-1.1210683	0.92291379	0.014517145	-1.3371605	0.9301628	-0.045988653	-1.1723299	1.380528	-0.24156686	-1.2114082	1.3805804	0.076876352	-1.2757546	1.4146716	-0.096992823	-1.1931406	1.031126	-0.30087366	-1.3714015	1.0715258	0.12250641	-0.96648102	0.93058522	-0.26491776	-1.2964576	0.85145891	0.19893718
